<svg width="64" height="64" xmlns="http://www.w3.org/2000/svg">

 <g>
  <title>background</title>
  <rect fill="none" id="canvas_background" height="402" width="582" y="-1" x="-1"/>
 </g>
 <g>
  <title>Layer 1</title>
  <path fill="#bf0000" id="Fill-38" d="m32,55.9c-13.2,0 -23.9,-10.7 -23.9,-23.9c0,-13.2 10.7,-23.9 23.9,-23.9s23.9,10.7 23.9,23.9c0,13.2 -10.7,23.9 -23.9,23.9l0,0zm0,-45.2c-11.7,0 -21.3,9.6 -21.3,21.3s9.6,21.3 21.3,21.3s21.3,-9.6 21.3,-21.3s-9.6,-21.3 -21.3,-21.3l0,0z" class="st0"/>
  <polygon transform="rotate(35 32.094341278076165,32) " fill="#bf0000" points="19.394338853657246,30.600006103515625 44.79434037953615,30.600006103515625 44.79434037953615,33.399993896484375 19.394338853657246,33.399993896484375 " id="Fill-39" class="st0"/>
  <polygon transform="rotate(45 32.000000000000014,31.99999237060546) " fill="#bf0000" points="30.59999990463257,19.29998779296875 33.40000009536743,19.29998779296875 33.40000009536743,44.69999694824219 30.59999990463257,44.69999694824219 " id="Fill-40" class="st0"/>
 </g>
</svg>